<svg xmlns="http://www.w3.org/2000/svg" viewBox="0 0 400 300">
  <defs>
    <linearGradient id="oceanBg2" x1="0%" y1="0%" x2="0%" y2="100%">
      <stop offset="0%" style="stop-color:#87CEEB;stop-opacity:1" />
      <stop offset="100%" style="stop-color:#4682B4;stop-opacity:1" />
    </linearGradient>
  </defs>
  
  <!-- 背景 -->
  <rect width="400" height="300" fill="url(#oceanBg2)"/>
  
  <!-- 氣泡 -->
  <circle cx="60" cy="80" r="10" fill="#fff" opacity="0.4"/>
  <circle cx="340" cy="120" r="8" fill="#fff" opacity="0.3"/>
  <circle cx="150" cy="50" r="12" fill="#fff" opacity="0.5"/>
  
  <!-- 海豚身體 -->
  <ellipse cx="200" cy="150" rx="70" ry="40" fill="#708090"/>
  
  <!-- 海豚頭部 -->
  <ellipse cx="140" cy="145" rx="40" ry="35" fill="#778899"/>
  
  <!-- 嘴喙 -->
  <ellipse cx="105" cy="148" rx="20" ry="12" fill="#778899"/>
  
  <!-- 背鰭 -->
  <path d="M200,110 Q210,80 215,110" fill="#556B7D"/>
  
  <!-- 尾鰭 -->
  <path d="M270,145 Q300,130 310,145 Q300,160 270,155 Z" fill="#556B7D"/>
  
  <!-- 胸鰭 -->
  <ellipse cx="160" cy="170" rx="25" ry="12" fill="#556B7D" transform="rotate(-20 160 170)"/>
  
  <!-- 眼睛 -->
  <circle cx="125" cy="140" r="6" fill="#fff"/>
  <circle cx="125" cy="140" r="4" fill="#000"/>
  <circle cx="126" cy="139" r="2" fill="#fff"/>
  
  <!-- 嘴巴（微笑）-->
  <path d="M90,150 Q95,158 100,155" stroke="#000" stroke-width="2" fill="none" stroke-linecap="round"/>
  
  <!-- 肚子 -->
  <ellipse cx="180" cy="165" rx="45" ry="25" fill="#D3D3D3" opacity="0.6"/>
</svg>