<svg xmlns="http://www.w3.org/2000/svg" viewBox="0 0 400 400" width="400" height="400">
  <defs>
    <linearGradient id="bgGrad" x1="0%" y1="0%" x2="0%" y2="100%">
      <stop offset="0%" style="stop-color:#FFEBEE;stop-opacity:1" />
      <stop offset="100%" style="stop-color:#FFCDD2;stop-opacity:1" />
    </linearGradient>
  </defs>
  <rect width="400" height="400" fill="url(#bgGrad)"/>
  <circle cx="320" cy="80" r="40" fill="#FFD54F" opacity="0.8"/>
  
  <!-- 異特龍 -->
  <g transform="translate(60, 100)">
    <!-- 尾巴 -->
    <path d="M40 140 Q0 135 -20 150 Q10 145 45 140" fill="#EF5350"/>
    
    <!-- 身體 -->
    <ellipse cx="100" cy="140" rx="60" ry="45" fill="#EF5350"/>
    
    <!-- 後腿 -->
    <ellipse cx="70" cy="200" rx="18" ry="30" fill="#C62828"/>
    <ellipse cx="120" cy="205" rx="16" ry="25" fill="#C62828"/>
    
    <!-- 前肢 -->
    <ellipse cx="155" cy="130" rx="18" ry="12" fill="#E57373"/>
    <!-- 爪子 -->
    <path d="M170 125 L180 120 M170 130 L182 128 M170 135 L180 138" stroke="#C62828" stroke-width="3" fill="none"/>
    
    <!-- 頭部 -->
    <ellipse cx="190" cy="90" rx="45" ry="35" fill="#EF5350"/>
    
    <!-- 眼睛上方骨脊 -->
    <path d="M175 70 Q185 60 195 70" fill="#C62828"/>
    
    <!-- 眼睛 -->
    <circle cx="200" cy="80" r="14" fill="white"/>
    <circle cx="202" cy="78" r="7" fill="#333"/>
    <circle cx="204" cy="76" r="3" fill="white"/>
    
    <!-- 嘴巴 -->
    <path d="M220 95 Q250 100 245 110 Q230 105 220 100" fill="#C62828"/>
    <!-- 牙齒 -->
    <polygon points="225,100 228,108 231,100" fill="white"/>
    <polygon points="235,102 238,110 241,102" fill="white"/>
  </g>
  
  <text x="200" y="370" text-anchor="middle" font-size="28" font-weight="bold" fill="#B71C1C">異特龍 Allosaurus</text>
</svg>
