<svg xmlns="http://www.w3.org/2000/svg" viewBox="0 0 400 300" width="400" height="300">
  <defs>
    <linearGradient id="jungleGrad" x1="0%" y1="0%" x2="0%" y2="100%">
      <stop offset="0%" style="stop-color:#81C784;stop-opacity:1" />
      <stop offset="100%" style="stop-color:#4CAF50;stop-opacity:1" />
    </linearGradient>
  </defs>
  <rect width="400" height="300" fill="url(#jungleGrad)"/>
  
  <!-- ่ค่ -->
  <path d="M250 0 Q260 50 240 100 Q220 150 250 180" stroke="#2E7D32" stroke-width="8" fill="none"/>
  <path d="M255 0 Q265 50 245 100 Q225 150 255 180" stroke="#388E3C" stroke-width="4" fill="none"/>
  
  <!-- ่ขซ่ค่็บไฝ็ๅฐๆ้พ -->
  <g transform="translate(230, 120)">
    <ellipse cx="30" cy="30" rx="25" ry="20" fill="#64B5F6"/>
    <text x="25" y="15" font-size="14">๐ฐ</text>
  </g>
  
  <!-- ็้พ็จ่งๆๆท่ค่ -->
  <g transform="translate(80, 100)">
    <ellipse cx="60" cy="60" rx="40" ry="30" fill="#EC407A"/>
    <ellipse cx="100" cy="50" rx="32" ry="25" fill="#EC407A"/>
    <!-- ่ง -->
    <path d="M90 30 Q85 15 90 5" stroke="#C2185B" stroke-width="6" fill="none"/>
    <path d="M115 30 Q120 15 115 5" stroke="#C2185B" stroke-width="6" fill="none"/>
    <circle cx="108" cy="45" r="10" fill="white"/>
    <circle cx="110" cy="43" r="5" fill="#333"/>
  </g>
  
  <!-- ๆทๆ็่ค่ -->
  <line x1="200" y1="100" x2="180" y2="120" stroke="#2E7D32" stroke-width="4"/>
  
  <text x="200" y="280" text-anchor="middle" font-size="16" fill="#1B5E20">่ง่ง็จ็่งๅนซๆๅ่งฃ้่ค่๏ผ</text>
</svg>
