<svg xmlns="http://www.w3.org/2000/svg" viewBox="0 0 400 300">
  <defs>
    <linearGradient id="oceanBg4" x1="0%" y1="0%" x2="0%" y2="100%">
      <stop offset="0%" style="stop-color:#191970;stop-opacity:1" />
      <stop offset="100%" style="stop-color:#000080;stop-opacity:1" />
    </linearGradient>
    <radialGradient id="jellyGlow">
      <stop offset="0%" style="stop-color:#FFB6C1;stop-opacity:0.8" />
      <stop offset="100%" style="stop-color:#FF69B4;stop-opacity:0.3" />
    </radialGradient>
  </defs>
  
  <!-- 深海背景 -->
  <rect width="400" height="300" fill="url(#oceanBg4)"/>
  
  <!-- 發光水母頭部 -->
  <ellipse cx="200" cy="120" rx="60" ry="50" fill="url(#jellyGlow)"/>
  
  <!-- 水母圓頂 -->
  <path d="M140,120 Q200,60 260,120" fill="#FFB6C1" opacity="0.6"/>
  
  <!-- 水母內部花紋 -->
  <ellipse cx="200" cy="110" rx="30" ry="25" fill="#FF1493" opacity="0.4"/>
  <circle cx="200" cy="100" r="10" fill="#FF1493" opacity="0.6"/>
  
  <!-- 觸手 -->
  <path d="M170,160 Q165,200 170,240" stroke="#FFB6C1" stroke-width="4" fill="none" opacity="0.7" stroke-linecap="round"/>
  <path d="M185,165 Q180,210 185,260" stroke="#FFB6C1" stroke-width="4" fill="none" opacity="0.7" stroke-linecap="round"/>
  <path d="M200,170 Q200,220 195,270" stroke="#FFB6C1" stroke-width="5" fill="none" opacity="0.7" stroke-linecap="round"/>
  <path d="M215,165 Q220,210 215,260" stroke="#FFB6C1" stroke-width="4" fill="none" opacity="0.7" stroke-linecap="round"/>
  <path d="M230,160 Q235,200 230,240" stroke="#FFB6C1" stroke-width="4" fill="none" opacity="0.7" stroke-linecap="round"/>
  
  <!-- 發光點 -->
  <circle cx="180" cy="100" r="4" fill="#fff" opacity="0.9"/>
  <circle cx="220" cy="105" r="3" fill="#fff" opacity="0.9"/>
  <circle cx="200" cy="130" r="5" fill="#fff" opacity="0.8"/>
  
  <!-- 氣泡 -->
  <circle cx="100" cy="100" r="8" fill="#fff" opacity="0.2"/>
  <circle cx="300" cy="150" r="10" fill="#fff" opacity="0.2"/>
</svg>