<svg xmlns="http://www.w3.org/2000/svg" viewBox="0 0 400 300">
  <defs>
    <linearGradient id="oceanBg11" x1="0%" y1="0%" x2="0%" y2="100%">
      <stop offset="0%" style="stop-color:#87CEEB;stop-opacity:1" />
      <stop offset="100%" style="stop-color:#4682B4;stop-opacity:1" />
    </linearGradient>
  </defs>
  
  <!-- 背景 -->
  <rect width="400" height="300" fill="url(#oceanBg11)"/>
  
  <!-- 氣泡 -->
  <circle cx="90" cy="90" r="10" fill="#fff" opacity="0.4"/>
  <circle cx="310" cy="110" r="12" fill="#fff" opacity="0.3"/>
  
  <!-- 河豚身體（鼓起來的球狀）-->
  <circle cx="200" cy="150" r="70" fill="#FFEB3B"/>
  
  <!-- 斑點 -->
  <circle cx="160" cy="130" r="8" fill="#FF9800"/>
  <circle cx="180" cy="110" r="6" fill="#FF9800"/>
  <circle cx="220" cy="115" r="7" fill="#FF9800"/>
  <circle cx="240" cy="135" r="8" fill="#FF9800"/>
  <circle cx="230" cy="170" r="6" fill="#FF9800"/>
  <circle cx="170" cy="175" r="7" fill="#FF9800"/>
  <circle cx="200" cy="190" r="6" fill="#FF9800"/>
  
  <!-- 刺（短短的）-->
  <line x1="150" y1="100" x2="142" y2="90" stroke="#FFA500" stroke-width="3" stroke-linecap="round"/>
  <line x1="170" y1="85" x2="168" y2="72" stroke="#FFA500" stroke-width="3" stroke-linecap="round"/>
  <line x1="200" y1="80" x2="200" y2="65" stroke="#FFA500" stroke-width="3" stroke-linecap="round"/>
  <line x1="230" y1="85" x2="232" y2="72" stroke="#FFA500" stroke-width="3" stroke-linecap="round"/>
  <line x1="250" y1="100" x2="258" y2="90" stroke="#FFA500" stroke-width="3" stroke-linecap="round"/>
  <line x1="265" y1="130" x2="278" y2="125" stroke="#FFA500" stroke-width="3" stroke-linecap="round"/>
  <line x1="270" y1="160" x2="283" y2="162" stroke="#FFA500" stroke-width="3" stroke-linecap="round"/>
  <line x1="135" y1="130" x2="122" y2="125" stroke="#FFA500" stroke-width="3" stroke-linecap="round"/>
  <line x1="130" y1="160" x2="117" y2="162" stroke="#FFA500" stroke-width="3" stroke-linecap="round"/>
  
  <!-- 眼睛（大大的）-->
  <circle cx="175" cy="140" r="12" fill="#fff"/>
  <circle cx="225" cy="140" r="12" fill="#fff"/>
  <circle cx="175" cy="140" r="8" fill="#000"/>
  <circle cx="225" cy="140" r="8" fill="#000"/>
  <circle cx="177" cy="138" r="4" fill="#fff"/>
  <circle cx="227" cy="138" r="4" fill="#fff"/>
  
  <!-- 嘴巴（小小的O型）-->
  <circle cx="200" cy="165" r="8" fill="#FF9800"/>
  <circle cx="200" cy="165" r="5" fill="#000" opacity="0.5"/>
  
  <!-- 鰭（小小的）-->
  <ellipse cx="130" cy="155" rx="8" ry="15" fill="#FFD54F" opacity="0.8"/>
  <ellipse cx="270" cy="155" rx="8" ry="15" fill="#FFD54F" opacity="0.8"/>
  
  <!-- 尾鰭 -->
  <path d="M265,175 L285,170 L285,180 Z" fill="#FFD54F"/>
</svg>