<svg xmlns="http://www.w3.org/2000/svg" viewBox="0 0 400 300">
  <defs>
    <linearGradient id="deepseaBg" x1="0%" y1="0%" x2="0%" y2="100%">
      <stop offset="0%" style="stop-color:#001F3F;stop-opacity:1" />
      <stop offset="100%" style="stop-color:#000814;stop-opacity:1" />
    </linearGradient>
    <radialGradient id="lightGlow">
      <stop offset="0%" style="stop-color:#FFFF00;stop-opacity:1" />
      <stop offset="100%" style="stop-color:#FFD700;stop-opacity:0" />
    </radialGradient>
  </defs>
  
  <!-- 深海背景 -->
  <rect width="400" height="300" fill="url(#deepseaBg)"/>
  
  <!-- 鮟鱇魚發光器（最重要的特徵）-->
  <line x1="185" y1="100" x2="165" y2="50" stroke="#4A4A4A" stroke-width="3"/>
  <circle cx="165" cy="50" r="15" fill="url(#lightGlow)"/>
  <circle cx="165" cy="50" r="8" fill="#FFFF00"/>
  
  <!-- 光暈效果 -->
  <circle cx="165" cy="50" r="25" fill="#FFFF00" opacity="0.2"/>
  <circle cx="165" cy="50" r="35" fill="#FFD700" opacity="0.1"/>
  
  <!-- 鮟鱇魚身體 -->
  <ellipse cx="220" cy="150" rx="70" ry="50" fill="#2C3E50"/>
  
  <!-- 頭部 -->
  <ellipse cx="160" cy="145" rx="50" ry="45" fill="#34495E"/>
  
  <!-- 大嘴巴（張開）-->
  <path d="M120,155 Q130,175 150,165" fill="#000" opacity="0.8"/>
  <ellipse cx="135" cy="165" rx="25" ry="12" fill="#1C1C1C"/>
  
  <!-- 牙齒（尖銳但可愛化）-->
  <polygon points="125,160 128,170 131,160" fill="#F0F0F0"/>
  <polygon points="135,158 138,168 141,158" fill="#F0F0F0"/>
  <polygon points="145,160 148,170 151,160" fill="#F0F0F0"/>
  
  <!-- 眼睛（小小的）-->
  <circle cx="145" cy="135" r="6" fill="#FFD700"/>
  <circle cx="145" cy="135" r="3" fill="#000"/>
  
  <!-- 背鰭 -->
  <path d="M220,100 Q235,85 240,105" fill="#1C2833"/>
  
  <!-- 胸鰭 -->
  <ellipse cx="180" cy="175" rx="25" ry="12" fill="#1C2833" transform="rotate(-20 180 175)"/>
  
  <!-- 尾鰭 -->
  <path d="M285,145 Q310,130 315,150 Q310,165 285,155 Z" fill="#1C2833"/>
  
  <!-- 腹部（略淺色）-->
  <ellipse cx="210" cy="165" rx="50" ry="30" fill="#4A5568" opacity="0.5"/>
  
  <!-- 發光生物（遠處）-->
  <circle cx="50" cy="80" r="3" fill="#00FFFF" opacity="0.6"/>
  <circle cx="350" cy="200" r="4" fill="#00FF7F" opacity="0.5"/>
  <circle cx="300" cy="100" r="2" fill="#FF69B4" opacity="0.7"/>
</svg>