<svg xmlns="http://www.w3.org/2000/svg" viewBox="0 0 400 300">
  <defs>
    <linearGradient id="oceanBg9" x1="0%" y1="0%" x2="0%" y2="100%">
      <stop offset="0%" style="stop-color:#87CEEB;stop-opacity:1" />
      <stop offset="100%" style="stop-color:#4682B4;stop-opacity:1" />
    </linearGradient>
  </defs>
  
  <!-- 背景 -->
  <rect width="400" height="300" fill="url(#oceanBg9)"/>
  
  <!-- 珊瑚 -->
  <circle cx="80" cy="260" r="25" fill="#FF6B9D" opacity="0.4"/>
  <circle cx="100" cy="240" r="20" fill="#FF6B9D" opacity="0.4"/>
  <circle cx="320" cy="270" r="30" fill="#9370DB" opacity="0.4"/>
  
  <!-- 氣泡 -->
  <circle cx="120" cy="80" r="8" fill="#fff" opacity="0.4"/>
  <circle cx="280" cy="100" r="10" fill="#fff" opacity="0.3"/>
  
  <!-- 神仙魚身體 -->
  <ellipse cx="200" cy="150" rx="35" ry="50" fill="#FFD700"/>
  
  <!-- 背鰭（高大）-->
  <path d="M185,100 Q190,60 200,55 Q210,60 215,100" fill="#FFA500"/>
  
  <!-- 臀鰭（對稱）-->
  <path d="M185,200 Q190,240 200,245 Q210,240 215,200" fill="#FFA500"/>
  
  <!-- 條紋 -->
  <ellipse cx="190" cy="150" rx="4" ry="45" fill="#FF8C00"/>
  <ellipse cx="200" cy="150" rx="4" ry="48" fill="#FF8C00"/>
  <ellipse cx="210" cy="150" rx="4" ry="45" fill="#FF8C00"/>
  
  <!-- 頭部 -->
  <ellipse cx="170" cy="150" rx="20" ry="30" fill="#FFD700"/>
  
  <!-- 嘴部 -->
  <ellipse cx="155" cy="150" rx="8" ry="10" fill="#FFA500"/>
  
  <!-- 眼睛 -->
  <circle cx="165" cy="145" r="6" fill="#fff"/>
  <circle cx="165" cy="145" r="4" fill="#000"/>
  <circle cx="166" cy="144" r="2" fill="#fff"/>
  
  <!-- 尾鰭 -->
  <path d="M235,140 Q270,130 280,145 Q270,160 235,160 Z" fill="#FFA500"/>
  <line x1="240" y1="145" x2="265" y2="140" stroke="#FF8C00" stroke-width="2"/>
  <line x1="240" y1="150" x2="270" y2="150" stroke="#FF8C00" stroke-width="2"/>
  <line x1="240" y1="155" x2="265" y2="160" stroke="#FF8C00" stroke-width="2"/>
  
  <!-- 胸鰭 -->
  <ellipse cx="175" cy="165" rx="18" ry="10" fill="#FFE4B5" opacity="0.7" transform="rotate(-30 175 165)"/>
</svg>