<svg xmlns="http://www.w3.org/2000/svg" viewBox="0 0 400 300">
  <defs>
    <linearGradient id="oceanBg8" x1="0%" y1="0%" x2="0%" y2="100%">
      <stop offset="0%" style="stop-color:#87CEEB;stop-opacity:1" />
      <stop offset="100%" style="stop-color:#4682B4;stop-opacity:1" />
    </linearGradient>
  </defs>
  
  <!-- 背景 -->
  <rect width="400" height="300" fill="url(#oceanBg8)"/>
  
  <!-- 氣泡 -->
  <circle cx="80" cy="80" r="10" fill="#fff" opacity="0.4"/>
  <circle cx="320" cy="120" r="12" fill="#fff" opacity="0.3"/>
  
  <!-- 鬼蝠魟身體（翼展）-->
  <path d="M200,150 Q150,120 80,140 Q60,145 70,155 Q90,165 130,170 Q160,172 200,175 Z" 
        fill="#2F4F4F"/>
  <path d="M200,150 Q250,120 320,140 Q340,145 330,155 Q310,165 270,170 Q240,172 200,175 Z" 
        fill="#2F4F4F"/>
  
  <!-- 身體中央 -->
  <ellipse cx="200" cy="160" rx="40" ry="30" fill="#36454F"/>
  
  <!-- 頭部角（cephalic fins）-->
  <ellipse cx="175" cy="145" rx="10" ry="20" fill="#2F4F4F" transform="rotate(-30 175 145)"/>
  <ellipse cx="225" cy="145" rx="10" ry="20" fill="#2F4F4F" transform="rotate(30 225 145)"/>
  
  <!-- 眼睛 -->
  <circle cx="185" cy="150" r="6" fill="#fff"/>
  <circle cx="215" cy="150" r="6" fill="#fff"/>
  <circle cx="185" cy="150" r="4" fill="#000"/>
  <circle cx="215" cy="150" r="4" fill="#000"/>
  
  <!-- 嘴巴（微笑）-->
  <ellipse cx="200" cy="165" rx="15" ry="8" fill="#000" opacity="0.7"/>
  
  <!-- 尾巴 -->
  <path d="M200,185 Q200,220 195,260" stroke="#2F4F4F" stroke-width="8" fill="none" stroke-linecap="round"/>
  
  <!-- 肚子花紋 -->
  <ellipse cx="200" cy="165" rx="25" ry="18" fill="#D3D3D3" opacity="0.3"/>
  
  <!-- 斑點 -->
  <circle cx="180" cy="155" r="3" fill="#fff" opacity="0.6"/>
  <circle cx="220" cy="160" r="3" fill="#fff" opacity="0.6"/>
  <circle cx="200" cy="170" r="3" fill="#fff" opacity="0.6"/>
</svg>