<svg xmlns="http://www.w3.org/2000/svg" viewBox="0 0 400 300" width="400" height="300">
  <defs>
    <linearGradient id="skyGrad" x1="0%" y1="0%" x2="0%" y2="100%">
      <stop offset="0%" style="stop-color:#81D4FA;stop-opacity:1" />
      <stop offset="100%" style="stop-color:#B3E5FC;stop-opacity:1" />
    </linearGradient>
  </defs>
  <rect width="400" height="300" fill="url(#skyGrad)"/>
  <circle cx="350" cy="50" r="35" fill="#FFD54F"/>
  <!-- 雲朵 -->
  <ellipse cx="100" cy="80" rx="50" ry="25" fill="white" opacity="0.9"/>
  <ellipse cx="280" cy="120" rx="45" ry="22" fill="white" opacity="0.9"/>
  
  <!-- 小翼龍學飛 -->
  <g transform="translate(120, 100)">
    <path d="M80 60 Q30 30 10 80 Q40 70 80 60" fill="#7986CB"/>
    <path d="M120 60 Q170 30 190 80 Q160 70 120 60" fill="#7986CB"/>
    <ellipse cx="100" cy="80" rx="30" ry="25" fill="#5C6BC0"/>
    <ellipse cx="100" cy="45" rx="22" ry="18" fill="#5C6BC0"/>
    <path d="M115 35 Q140 10 125 40" fill="#FF8A65"/>
    <path d="M78 50 L55 58 L78 63" fill="#FFB74D"/>
    <circle cx="95" cy="40" r="10" fill="white"/>
    <circle cx="97" cy="38" r="5" fill="#333"/>
    <circle cx="99" cy="36" r="2" fill="white"/>
  </g>
  
  <text x="200" y="280" text-anchor="middle" font-size="18" fill="#1565C0">小翼龍飛飛第一次學飛！</text>
</svg>
