<svg xmlns="http://www.w3.org/2000/svg" viewBox="0 0 400 300">
  <defs>
    <linearGradient id="oceanBg" x1="0%" y1="0%" x2="0%" y2="100%">
      <stop offset="0%" style="stop-color:#87CEEB;stop-opacity:1" />
      <stop offset="100%" style="stop-color:#4682B4;stop-opacity:1" />
    </linearGradient>
  </defs>
  
  <!-- 背景 -->
  <rect width="400" height="300" fill="url(#oceanBg)"/>
  
  <!-- 氣泡 -->
  <circle cx="50" cy="50" r="8" fill="#fff" opacity="0.4"/>
  <circle cx="350" cy="100" r="12" fill="#fff" opacity="0.3"/>
  <circle cx="100" cy="250" r="6" fill="#fff" opacity="0.5"/>
  
  <!-- 海葵 -->
  <ellipse cx="200" cy="280" rx="60" ry="20" fill="#9370DB" opacity="0.6"/>
  <path d="M160,280 Q160,200 170,180" stroke="#DA70D6" stroke-width="8" fill="none" stroke-linecap="round"/>
  <path d="M180,280 Q180,200 185,175" stroke="#DA70D6" stroke-width="8" fill="none" stroke-linecap="round"/>
  <path d="M200,280 Q200,190 200,170" stroke="#DA70D6" stroke-width="8" fill="none" stroke-linecap="round"/>
  <path d="M220,280 Q220,200 215,175" stroke="#DA70D6" stroke-width="8" fill="none" stroke-linecap="round"/>
  <path d="M240,280 Q240,200 230,180" stroke="#DA70D6" stroke-width="8" fill="none" stroke-linecap="round"/>
  
  <!-- 小丑魚身體 -->
  <ellipse cx="200" cy="150" rx="50" ry="35" fill="#FF6B35"/>
  
  <!-- 白色條紋 -->
  <ellipse cx="170" cy="150" rx="12" ry="35" fill="#fff"/>
  <ellipse cx="210" cy="150" rx="12" ry="35" fill="#fff"/>
  
  <!-- 尾巴 -->
  <path d="M250,150 Q280,130 285,140 Q280,150 285,160 Q280,170 250,150" fill="#FF6B35"/>
  
  <!-- 背鰭 -->
  <path d="M200,115 Q210,100 215,115" fill="#FF4500"/>
  
  <!-- 眼睛 -->
  <circle cx="185" cy="145" r="8" fill="#fff"/>
  <circle cx="185" cy="145" r="5" fill="#000"/>
  <circle cx="187" cy="143" r="2" fill="#fff"/>
  
  <!-- 嘴巴（微笑）-->
  <path d="M165,155 Q170,160 175,155" stroke="#000" stroke-width="2" fill="none" stroke-linecap="round"/>
  
  <!-- 胸鰭 -->
  <ellipse cx="175" cy="165" rx="15" ry="8" fill="#FF8C66" opacity="0.8"/>
</svg>